<?xml version="1.0" standalone="no"?>
<!DOCTYPE svg PUBLIC "-//W3C//DTD SVG 20010904//EN"
 "http://www.w3.org/TR/2001/REC-SVG-20010904/DTD/svg10.dtd">
<svg version="1.0" xmlns="http://www.w3.org/2000/svg"
 width="260.000000pt" height="260.000000pt" viewBox="0 0 260.000000 260.000000"
 preserveAspectRatio="xMidYMid meet">
<metadata>
Created by potrace 1.11, written by Peter Selinger 2001-2013
</metadata>
<g transform="translate(0.000000,260.000000) scale(0.100000,-0.100000)"
fill="#000000" stroke="none">
<path d="M0 1300 l0 -1300 133 0 132 0 106 108 c85 86 108 116 119 152 16 59
63 151 86 171 39 32 143 89 162 89 13 0 26 11 34 28 7 15 29 35 48 44 31 16
38 26 61 100 32 104 52 116 43 26 -5 -47 -2 -72 10 -98 16 -35 16 -35 10 39
-7 85 -3 86 56 6 69 -94 153 -177 250 -248 52 -39 101 -79 108 -89 7 -10 19
-18 26 -18 7 0 23 -11 35 -24 12 -13 50 -36 83 -51 49 -22 58 -29 44 -37 -9
-5 -14 -13 -11 -18 6 -10 -31 -34 -64 -43 -30 -7 -78 12 -140 56 -71 52 -80
54 -36 8 57 -60 145 -117 204 -131 35 -8 59 -21 77 -43 29 -34 39 -28 50 30 8
41 34 68 121 121 81 49 78 39 89 243 8 149 -5 199 -26 99 -13 -62 -46 -118
-61 -103 -8 8 3 124 17 179 5 19 4 25 -5 20 -6 -4 -11 -13 -11 -20 0 -20 -66
-80 -118 -109 -71 -38 -208 -50 -292 -27 -25 7 -52 14 -60 15 -8 1 -22 2 -31
3 -22 3 -156 105 -203 155 -22 23 -38 42 -36 42 2 0 -19 34 -45 75 -58 90 -95
162 -95 184 0 18 -37 96 -45 96 -3 0 -2 -12 1 -26 9 -34 -11 -47 -46 -29 -30
15 -111 100 -130 135 -7 13 -19 46 -26 73 -11 41 -11 48 1 43 8 -3 18 2 23 10
15 27 39 6 38 -33 -1 -25 5 -39 20 -49 19 -13 21 -12 20 7 -2 36 19 32 38 -7
12 -26 20 -34 28 -26 7 7 5 31 -6 80 -23 101 -21 154 9 212 31 60 31 100 3
196 l-21 74 20 23 c11 12 23 29 26 38 5 15 37 21 109 22 15 0 26 3 23 6 -2 4
23 8 56 8 32 1 59 -2 59 -7 0 -6 7 -10 15 -10 9 0 12 6 8 16 -5 15 0 16 48 10
41 -5 67 -2 110 13 63 23 175 37 213 27 14 -3 41 -20 60 -36 l34 -30 53 51
c40 39 49 53 38 59 -11 7 -10 10 4 16 12 4 26 -1 41 -15 19 -18 25 -35 28 -90
3 -60 9 -76 47 -134 25 -40 55 -105 72 -159 16 -50 33 -94 38 -97 9 -6 17 -80
27 -236 4 -69 2 -86 -6 -72 -8 13 -15 15 -24 8 -7 -6 -41 -18 -75 -27 -63 -16
-64 -16 -137 11 -40 15 -78 33 -85 41 -6 8 -18 14 -26 14 -12 0 -12 -3 1 -22
21 -29 20 -47 -1 -55 -10 -4 -37 -20 -60 -36 -41 -27 -46 -28 -124 -21 -67 6
-81 4 -77 -7 5 -15 24 -26 94 -54 57 -23 119 -13 141 23 9 15 27 37 41 48 21
18 29 20 58 11 28 -8 34 -15 34 -37 0 -37 -15 -47 -80 -54 -30 -4 -71 -13 -90
-21 -35 -13 -90 -25 -211 -45 -93 -16 -101 -24 -48 -48 24 -12 59 -32 78 -46
40 -30 66 -34 57 -10 -6 15 0 16 42 10 32 -4 66 -1 101 10 67 20 84 14 40 -14
-19 -12 -28 -22 -20 -22 24 0 82 51 97 85 7 18 27 47 44 63 17 17 26 33 21 37
-20 12 6 48 45 61 51 18 79 18 94 -1 7 -9 19 -14 26 -11 7 3 17 -7 23 -25 5
-16 6 -29 2 -29 -5 0 -11 -13 -14 -30 -4 -16 -16 -39 -27 -50 -11 -11 -20 -27
-20 -35 0 -8 -5 -15 -11 -15 -5 0 -7 -6 -3 -12 12 -19 13 -51 2 -65 -5 -7 -5
-13 0 -17 8 -5 37 61 58 133 3 10 14 12 47 6 49 -9 68 -9 122 0 35 6 46 3 82
-24 35 -25 53 -31 94 -31 48 0 154 -21 307 -61 40 -10 74 -19 77 -19 3 0 5
425 5 945 l0 945 -1300 0 -1300 0 0 -1300z m1319 1136 c22 -12 21 -13 -29 -20
-29 -4 -66 -14 -82 -22 -16 -8 -33 -12 -38 -9 -6 4 -27 -11 -48 -32 -21 -21
-63 -53 -94 -71 -30 -18 -66 -44 -78 -57 -13 -14 -38 -29 -56 -35 -19 -7 -34
-16 -34 -21 0 -5 -6 -9 -12 -9 -13 0 9 25 84 97 21 20 35 39 33 44 -3 4 12 22
32 39 34 29 35 32 13 27 -78 -17 -226 -83 -249 -111 -8 -9 -19 -16 -26 -16 -7
0 -25 -10 -41 -22 -24 -19 -22 -15 11 25 69 82 151 127 280 152 50 9 119 25
155 35 77 22 146 24 179 6z m1199 -173 c19 -27 19 -27 -2 -44 l-21 -17 22 -24
c22 -23 22 -24 4 -35 -15 -10 -22 -8 -35 6 -9 10 -16 25 -16 34 0 9 -4 17 -10
17 -15 0 -12 77 3 83 25 11 36 6 55 -20z m-634 -629 c22 -9 20 -47 -4 -62 -17
-10 -20 -9 -26 13 -6 23 0 55 10 55 2 0 11 -3 20 -6z m-1223 -327 l21 -40 -24
7 c-12 3 -35 9 -50 12 -21 5 -28 13 -28 30 0 25 26 45 47 37 8 -3 23 -24 34
-46z m934 -446 c-3 -12 -10 -19 -15 -16 -5 3 -26 -4 -46 -16 -26 -14 -58 -21
-103 -23 -37 -1 -72 -6 -79 -10 -17 -10 -19 -8 -28 28 -6 25 -5 28 11 22 10
-3 24 -1 32 5 7 7 16 9 20 6 3 -4 12 -2 18 3 7 6 38 11 69 13 31 1 56 5 56 10
0 13 30 8 30 -5 0 -7 5 -5 11 5 14 25 33 7 24 -22z m-285 -42 c0 -5 -4 -9 -10
-9 -5 0 -10 7 -10 16 0 8 5 12 10 9 6 -3 10 -10 10 -16z"/>
<path d="M1611 1529 c-25 -5 -49 -13 -55 -19 -5 -5 -18 -10 -27 -10 -9 0 -19
-7 -23 -15 -3 -8 -13 -15 -23 -15 -29 0 -83 -43 -83 -67 0 -24 37 -93 50 -93
5 0 13 6 17 13 4 6 14 12 21 13 6 1 21 2 33 3 11 0 17 6 14 11 -12 20 6 32 28
17 25 -16 67 -28 65 -18 -1 3 5 18 12 34 12 25 15 26 31 11 19 -17 46 -13 86
13 20 13 22 21 16 61 -3 26 -8 50 -12 53 -11 11 -105 16 -150 8z"/>
<path d="M1009 1395 c-31 -11 -71 -31 -88 -45 -30 -23 -32 -27 -19 -51 7 -14
18 -24 25 -22 6 2 10 -4 9 -14 -1 -13 10 -20 38 -27 35 -9 40 -8 58 14 14 17
22 20 30 12 19 -19 47 -14 73 14 20 22 24 23 32 9 7 -12 17 -14 36 -10 15 4
27 11 27 15 0 5 12 10 26 12 38 4 50 28 35 66 -16 39 -35 45 -141 46 -62 1
-100 -4 -141 -19z"/>
<path d="M1155 955 c-58 -53 -59 -55 -41 -70 23 -17 36 -19 36 -5 0 5 15 27
34 47 82 93 63 112 -29 28z"/>
<path d="M1604 769 c-32 -36 -98 -60 -167 -60 -61 -1 -62 -1 -33 -16 22 -11
44 -13 95 -8 58 6 70 11 103 45 36 36 48 60 30 60 -5 0 -17 -10 -28 -21z"/>
<path d="M1403 733 c9 -2 23 -2 30 0 6 3 -1 5 -18 5 -16 0 -22 -2 -12 -5z"/>
<path d="M1843 206 c-4 -8 -39 -30 -78 -50 -78 -39 -118 -77 -129 -119 -6 -24
-4 -27 17 -27 13 0 39 5 57 12 28 9 35 8 45 -5 17 -23 55 -22 55 1 0 10 7 27
16 38 15 18 15 18 11 -9 -6 -36 9 -35 28 3 19 36 19 40 0 40 -24 0 -1 37 35
55 18 9 30 24 30 35 0 34 -70 55 -87 26z"/>
<path d="M1384 68 c-11 -13 -28 -33 -38 -45 l-19 -23 53 0 c45 0 51 2 40 15
-10 12 -10 18 0 31 11 12 11 18 -1 30 -13 13 -17 12 -35 -8z"/>
<path d="M1484 34 c3 -9 6 -20 6 -25 0 -18 29 -9 41 12 10 20 9 21 -10 16 -11
-3 -21 -1 -21 4 0 5 -5 9 -11 9 -6 0 -8 -7 -5 -16z"/>
</g>
</svg>
